<svg xmlns="http://www.w3.org/2000/svg" viewBox="-0.000022206 0.703 185 13.56">
	<path d="M0 10.976V3.99A3.274 3.274 0 0 1 3.292.704h12.776v2.028H3.292a1.25 1.25 0 0 0-1.234 1.254v6.99a1.23 1.23 0 0 0 1.234 1.234h12.776v2.05H3.292A3.274 3.274 0 0 1 0 10.977M43.773.704l-8.085 8.544v5.011h-2.05V9.25L25.55.703h2.81l6.302 6.646 6.3-6.646zM52.77 12.209h12.775a1.23 1.23 0 0 0 1.14-.762q.094-.227.094-.472V9.74a1.23 1.23 0 0 0-1.234-1.234h-9.946a3.287 3.287 0 0 1-3.284-3.285V3.99A3.277 3.277 0 0 1 55.599.704h12.776v2.028H55.599a1.25 1.25 0 0 0-1.234 1.254v1.232A1.23 1.23 0 0 0 55.6 6.452h9.946a3.28 3.28 0 0 1 3.266 3.284v1.24a3.27 3.27 0 0 1-3.266 3.284H52.771zM93.144 8.507H80.73v5.752h-2.05V.704h2.05v5.752h12.415V.704h2.032V14.26h-2.032zM107.099.706h-2.051V14.26h2.051zM116.975 10.976V3.99c-.002-.432.082-.86.247-1.259a3.262 3.262 0 0 1 3.037-2.027h12.776v2.028h-12.776a1.246 1.246 0 0 0-1.234 1.254v2.462h14.01v2.066h-14.01v2.462a1.24 1.24 0 0 0 .361.873q.173.174.401.268c.149.062.31.093.472.093h12.776v2.05h-12.776a3.27 3.27 0 0 1-3.037-2.025 3.3 3.3 0 0 1-.247-1.259M142.895 10.976V.704h2.05v10.272a1.24 1.24 0 0 0 .361.873 1.22 1.22 0 0 0 .873.36h11.875v2.052h-11.875a3.28 3.28 0 0 1-3.038-2.026 3.3 3.3 0 0 1-.246-1.259M185 10.976V3.99a3.275 3.275 0 0 0-3.284-3.286h-12.777v2.028h12.777a1.25 1.25 0 0 1 1.234 1.254v6.99a1.24 1.24 0 0 1-.762 1.14 1.2 1.2 0 0 1-.472.094h-12.777v2.05h12.777a3.28 3.28 0 0 0 3.038-2.025c.163-.4.248-.827.246-1.259" fill="#ffffff"/>
</svg>